<mxfile host="app.diagrams.net" modified="2021-05-25T23:59:57.791Z" agent="5.0 (Windows NT 10.0; Win64; x64) AppleWebKit/537.36 (KHTML, like Gecko) Chrome/90.0.4430.212 Safari/537.36" etag="Z8Ot1ljD4n8Rk-QRvLue" version="14.6.13" type="github" pages="2">
  <diagram name="Page-1" id="03018318-947c-dd8e-b7a3-06fadd420f32">
    <mxGraphModel dx="1065" dy="584" grid="1" gridSize="10" guides="1" tooltips="1" connect="1" arrows="1" fold="1" page="1" pageScale="1" pageWidth="1100" pageHeight="850" background="none" math="0" shadow="0">
      <root>
        <mxCell id="0" />
        <mxCell id="1" parent="0" />
        <mxCell id="677b7b8949515195-1" value="" style="whiteSpace=wrap;html=1;rounded=0;shadow=0;labelBackgroundColor=none;strokeColor=#000000;strokeWidth=1;fillColor=none;fontFamily=Verdana;fontSize=12;fontColor=#000000;align=center;comic=1;" parent="1" vertex="1">
          <mxGeometry x="20" y="20" width="1060" height="810" as="geometry" />
        </mxCell>
        <mxCell id="677b7b8949515195-2" value="LOGO (merit)" style="whiteSpace=wrap;html=1;rounded=0;shadow=0;labelBackgroundColor=none;strokeWidth=1;fontFamily=Verdana;fontSize=28;align=center;comic=1;" parent="1" vertex="1">
          <mxGeometry x="40" y="40" width="200" height="80" as="geometry" />
        </mxCell>
        <mxCell id="677b7b8949515195-3" value="Search" style="strokeWidth=1;shadow=0;dashed=0;align=center;html=1;shape=mxgraph.mockup.forms.searchBox;strokeColor=#999999;mainText=;strokeColor2=#008cff;fontColor=#666666;fontSize=17;align=left;spacingLeft=3;rounded=0;labelBackgroundColor=none;comic=1;" parent="1" vertex="1">
          <mxGeometry x="840" y="95" width="220" height="30" as="geometry" />
        </mxCell>
        <mxCell id="677b7b8949515195-7" value="&amp;nbsp; &amp;nbsp; &amp;nbsp; LOGIN" style="text;html=1;points=[];align=left;verticalAlign=top;spacingTop=-4;fontSize=14;fontFamily=Verdana" parent="1" vertex="1">
          <mxGeometry x="900" y="30" width="150" height="20" as="geometry" />
        </mxCell>
        <mxCell id="677b7b8949515195-9" value="" style="line;strokeWidth=1;html=1;rounded=0;shadow=0;labelBackgroundColor=none;fillColor=none;fontFamily=Verdana;fontSize=14;fontColor=#000000;align=center;comic=1;" parent="1" vertex="1">
          <mxGeometry x="20" y="140" width="1060" height="10" as="geometry" />
        </mxCell>
        <mxCell id="qqEnKD0gTVPrWVCZpgQ_-3" value="&lt;span id=&quot;docs-internal-guid-1c328de5-7fff-0aef-3b5f-240ee2db73f4&quot;&gt;&lt;span style=&quot;font-family: &amp;#34;source sans pro&amp;#34; , sans-serif ; background-color: transparent ; vertical-align: baseline&quot;&gt;&lt;font style=&quot;font-size: 29px&quot;&gt;Merit Financial Bank&lt;/font&gt;&lt;/span&gt;&lt;/span&gt;" style="text;html=1;strokeColor=none;fillColor=none;align=center;verticalAlign=middle;whiteSpace=wrap;rounded=0;" vertex="1" parent="1">
          <mxGeometry x="300" y="50" width="460" height="45" as="geometry" />
        </mxCell>
        <mxCell id="qqEnKD0gTVPrWVCZpgQ_-6" value="" style="verticalLabelPosition=bottom;shadow=0;dashed=0;align=center;html=1;verticalAlign=top;strokeWidth=1;shape=mxgraph.mockup.graphics.simpleIcon;strokeColor=#999999;rounded=0;labelBackgroundColor=none;fontFamily=Verdana;fontSize=14;fontColor=#000000;comic=1;" vertex="1" parent="1">
          <mxGeometry x="40" y="160" width="1020" height="360" as="geometry" />
        </mxCell>
        <mxCell id="qqEnKD0gTVPrWVCZpgQ_-7" value="" style="verticalLabelPosition=bottom;shadow=0;dashed=0;align=center;html=1;verticalAlign=top;strokeWidth=1;shape=mxgraph.mockup.graphics.simpleIcon;strokeColor=#999999;rounded=0;labelBackgroundColor=none;fontFamily=Verdana;fontSize=14;fontColor=#000000;comic=1;" vertex="1" parent="1">
          <mxGeometry x="830" y="550" width="240" height="180" as="geometry" />
        </mxCell>
        <mxCell id="qqEnKD0gTVPrWVCZpgQ_-8" value="" style="verticalLabelPosition=bottom;shadow=0;dashed=0;align=center;html=1;verticalAlign=top;strokeWidth=1;shape=mxgraph.mockup.graphics.simpleIcon;strokeColor=#999999;rounded=0;labelBackgroundColor=none;fontFamily=Verdana;fontSize=14;fontColor=#000000;comic=1;" vertex="1" parent="1">
          <mxGeometry x="40" y="550" width="240" height="180" as="geometry" />
        </mxCell>
        <mxCell id="qqEnKD0gTVPrWVCZpgQ_-9" value="" style="verticalLabelPosition=bottom;shadow=0;dashed=0;align=center;html=1;verticalAlign=top;strokeWidth=1;shape=mxgraph.mockup.graphics.simpleIcon;strokeColor=#999999;rounded=0;labelBackgroundColor=none;fontFamily=Verdana;fontSize=14;fontColor=#000000;comic=1;" vertex="1" parent="1">
          <mxGeometry x="300" y="550" width="240" height="180" as="geometry" />
        </mxCell>
        <mxCell id="qqEnKD0gTVPrWVCZpgQ_-10" value="" style="verticalLabelPosition=bottom;shadow=0;dashed=0;align=center;html=1;verticalAlign=top;strokeWidth=1;shape=mxgraph.mockup.graphics.simpleIcon;strokeColor=#999999;rounded=0;labelBackgroundColor=none;fontFamily=Verdana;fontSize=14;fontColor=#000000;comic=1;" vertex="1" parent="1">
          <mxGeometry x="570" y="550" width="240" height="180" as="geometry" />
        </mxCell>
        <mxCell id="qqEnKD0gTVPrWVCZpgQ_-11" value="" style="rounded=1;whiteSpace=wrap;html=1;" vertex="1" parent="1">
          <mxGeometry x="40" y="750" width="1020" height="60" as="geometry" />
        </mxCell>
        <mxCell id="m0r7TiWK5jOuavQM4IlW-1" value="" style="rounded=1;whiteSpace=wrap;html=1;" vertex="1" parent="1">
          <mxGeometry x="890" y="50" width="170" height="40" as="geometry" />
        </mxCell>
      </root>
    </mxGraphModel>
  </diagram>
  <diagram id="Cd0LyUDp0_vBkJQkIGvO" name="Page-2">
    <mxGraphModel dx="1065" dy="584" grid="1" gridSize="10" guides="1" tooltips="1" connect="1" arrows="1" fold="1" page="1" pageScale="1" pageWidth="850" pageHeight="1100" math="0" shadow="0">
      <root>
        <mxCell id="CiDwgPuJATXP5t8LIXHA-0" />
        <mxCell id="CiDwgPuJATXP5t8LIXHA-1" parent="CiDwgPuJATXP5t8LIXHA-0" />
        <mxCell id="gVvvFd-DXclLkTrpmLeK-0" value="" style="whiteSpace=wrap;html=1;rounded=0;shadow=0;labelBackgroundColor=none;strokeColor=#000000;strokeWidth=1;fillColor=none;fontFamily=Verdana;fontSize=12;fontColor=#000000;align=center;comic=1;" vertex="1" parent="CiDwgPuJATXP5t8LIXHA-1">
          <mxGeometry x="20" y="20" width="1060" height="810" as="geometry" />
        </mxCell>
        <mxCell id="gVvvFd-DXclLkTrpmLeK-1" value="Admin dashboard" style="whiteSpace=wrap;html=1;rounded=0;shadow=0;labelBackgroundColor=none;strokeWidth=1;fontFamily=Verdana;fontSize=28;align=center;comic=1;" vertex="1" parent="CiDwgPuJATXP5t8LIXHA-1">
          <mxGeometry x="40" y="40" width="260" height="80" as="geometry" />
        </mxCell>
        <mxCell id="gVvvFd-DXclLkTrpmLeK-3" value="&amp;nbsp;Username(admin) Sign out&amp;nbsp;" style="text;html=1;points=[];align=left;verticalAlign=top;spacingTop=-4;fontSize=14;fontFamily=Verdana" vertex="1" parent="CiDwgPuJATXP5t8LIXHA-1">
          <mxGeometry x="830" y="30" width="240" height="60" as="geometry" />
        </mxCell>
        <mxCell id="gVvvFd-DXclLkTrpmLeK-4" value="" style="line;strokeWidth=1;html=1;rounded=0;shadow=0;labelBackgroundColor=none;fillColor=none;fontFamily=Verdana;fontSize=14;fontColor=#000000;align=center;comic=1;" vertex="1" parent="CiDwgPuJATXP5t8LIXHA-1">
          <mxGeometry x="20" y="140" width="1060" height="10" as="geometry" />
        </mxCell>
        <mxCell id="gVvvFd-DXclLkTrpmLeK-25" value="" style="shape=internalStorage;whiteSpace=wrap;html=1;backgroundOutline=1;" vertex="1" parent="CiDwgPuJATXP5t8LIXHA-1">
          <mxGeometry x="20" y="140" width="230" height="690" as="geometry" />
        </mxCell>
        <mxCell id="gVvvFd-DXclLkTrpmLeK-27" value="" style="shape=process;whiteSpace=wrap;html=1;backgroundOutline=1;" vertex="1" parent="CiDwgPuJATXP5t8LIXHA-1">
          <mxGeometry x="280" y="160" width="790" height="670" as="geometry" />
        </mxCell>
        <mxCell id="gVvvFd-DXclLkTrpmLeK-28" value="User detail" style="rounded=1;whiteSpace=wrap;html=1;" vertex="1" parent="CiDwgPuJATXP5t8LIXHA-1">
          <mxGeometry x="360" y="230" width="630" height="70" as="geometry" />
        </mxCell>
        <mxCell id="gVvvFd-DXclLkTrpmLeK-29" value="Basic info" style="rounded=1;whiteSpace=wrap;html=1;" vertex="1" parent="CiDwgPuJATXP5t8LIXHA-1">
          <mxGeometry x="360" y="320" width="630" height="250" as="geometry" />
        </mxCell>
        <mxCell id="gVvvFd-DXclLkTrpmLeK-31" value="" style="rounded=0;whiteSpace=wrap;html=1;" vertex="1" parent="CiDwgPuJATXP5t8LIXHA-1">
          <mxGeometry x="830" y="70" width="210" height="60" as="geometry" />
        </mxCell>
      </root>
    </mxGraphModel>
  </diagram>
</mxfile>
